<?xml version="1.0" standalone="no"?>
<!DOCTYPE svg PUBLIC "-//W3C//DTD SVG 20010904//EN"
 "http://www.w3.org/TR/2001/REC-SVG-20010904/DTD/svg10.dtd">
<svg version="1.0" xmlns="http://www.w3.org/2000/svg"
 width="250.000000pt" height="130.000000pt" viewBox="0 0 250.000000 130.000000"
 preserveAspectRatio="xMidYMid meet">

<g transform="translate(0.000000,130.000000) scale(0.100000,-0.100000)"
fill="#000000" stroke="none">
<path d="M1235 1085 c-61 -20 -350 -161 -380 -184 -5 -5 -88 -12 -184 -16 -95
-4 -205 -13 -245 -20 -95 -17 -221 -52 -260 -72 -46 -24 -106 -74 -106 -90 0
-7 18 -32 40 -54 22 -23 40 -45 40 -50 0 -22 83 -99 106 -99 28 0 29 6 9 53
-32 76 -15 137 54 200 49 44 79 50 222 44 63 -3 239 -6 393 -6 l278 0 60 -46
59 -46 27 20 c15 10 38 31 51 45 l24 26 206 0 c161 0 212 -3 234 -15 25 -13
31 -12 60 5 27 17 51 20 151 20 109 0 123 -2 161 -25 61 -35 82 -76 90 -179 4
-47 11 -86 15 -86 5 0 29 43 55 96 48 98 52 123 32 219 -3 11 -5 27 -6 35 -1
12 -22 15 -124 15 l-123 0 -80 43 c-112 61 -278 140 -352 168 -58 22 -75 24
-250 23 -169 0 -194 -3 -257 -24z m467 -86 c102 -31 184 -64 192 -78 12 -18
-45 -54 -106 -67 -97 -21 -616 -19 -711 2 -40 9 -74 18 -76 20 -8 8 54 66 89
84 49 25 165 61 230 70 104 16 275 2 382 -31z m-1434 -211 c-7 -21 -53 -48
-92 -55 -52 -8 -45 14 14 45 48 24 84 29 78 10z"/>
<path d="M440 760 c-70 -6 -106 -30 -131 -83 -25 -55 -24 -93 4 -147 33 -66
81 -90 182 -90 101 0 168 28 173 73 4 37 -19 44 -61 18 -45 -28 -169 -30 -207
-4 -35 24 -40 33 -40 80 0 39 4 46 42 73 35 26 50 30 104 30 34 0 75 -5 90
-10 43 -17 78 27 37 46 -28 12 -133 19 -193 14z"/>
<path d="M817 752 c-110 -3 -130 -15 -125 -75 2 -30 10 -45 31 -61 25 -18 47
-22 165 -26 l137 -5 3 -27 3 -27 -158 -3 c-150 -3 -158 -4 -158 -23 0 -19 8
-20 170 -23 163 -3 171 -2 188 19 27 34 22 77 -14 110 -30 28 -34 29 -133 29
-111 0 -176 13 -176 35 0 21 27 25 179 28 127 2 134 3 142 24 8 21 5 22 -78
25 -47 2 -126 2 -176 0z"/>
<path d="M1130 750 c-18 -11 -9 -259 10 -270 32 -20 40 0 40 96 0 52 2 94 5
94 3 0 33 -20 67 -45 34 -25 69 -45 78 -45 9 0 41 23 72 50 31 28 59 50 62 50
3 0 6 -45 6 -100 l0 -100 25 0 25 0 0 135 c0 138 -1 141 -40 135 -8 -1 -44
-24 -79 -51 -35 -27 -67 -49 -71 -49 -3 0 -38 22 -77 48 -75 52 -103 64 -123
52z"/>
<path d="M1576 744 c-3 -9 -6 -49 -6 -90 l0 -74 114 0 115 0 3 -52 c3 -46 6
-53 26 -56 22 -3 22 -3 22 131 0 99 -3 136 -12 139 -29 11 -38 -4 -38 -63 l0
-59 -89 0 -90 0 -7 70 c-4 46 -11 70 -19 70 -7 0 -16 -7 -19 -16z"/>
<path d="M1984 751 c-11 -5 -34 -25 -51 -44 -58 -66 -53 -164 12 -227 l36 -35
109 0 110 0 37 38 c38 37 38 38 38 117 0 79 0 80 -38 117 l-37 38 -98 2 c-53
2 -106 -1 -118 -6z m220 -72 c34 -40 36 -113 5 -153 -20 -25 -24 -26 -119 -26
-95 0 -99 1 -119 26 -31 40 -29 113 5 153 25 30 28 31 114 31 86 0 89 -1 114
-31z"/>
<path d="M340 365 l-23 -25 23 -25 c14 -15 35 -25 52 -25 27 0 28 2 28 50 0
48 -1 50 -28 50 -17 0 -38 -10 -52 -25z"/>
<path d="M470 336 c0 -43 3 -56 15 -56 9 0 15 9 16 23 l0 22 11 -22 c6 -13 16
-23 23 -23 7 0 17 10 23 23 l11 22 0 -22 c1 -14 7 -23 16 -23 12 0 15 13 15
56 0 51 -2 55 -22 52 -14 -2 -25 -14 -33 -37 l-11 -34 -10 34 c-7 24 -16 35
-32 37 -20 3 -22 -1 -22 -52z"/>
<path d="M650 347 c0 -24 5 -48 12 -55 16 -16 70 -16 86 0 18 18 16 98 -2 98
-10 0 -16 -14 -18 -42 -2 -35 -7 -43 -23 -43 -16 0 -21 8 -23 43 -2 28 -8 42
-18 42 -10 0 -14 -12 -14 -43z"/>
<path d="M810 335 l0 -55 40 0 c22 0 40 5 40 10 0 6 -11 10 -25 10 -23 0 -25
4 -25 45 0 33 -4 45 -15 45 -12 0 -15 -13 -15 -55z"/>
<path d="M930 380 c0 -5 9 -10 20 -10 17 0 20 -7 20 -45 0 -33 4 -45 15 -45
11 0 15 12 15 45 0 38 3 45 20 45 11 0 20 5 20 10 0 6 -25 10 -55 10 -30 0
-55 -4 -55 -10z"/>
<path d="M1080 335 c0 -42 3 -55 15 -55 12 0 15 13 15 55 0 42 -3 55 -15 55
-12 0 -15 -13 -15 -55z"/>
<path d="M1170 336 c0 -43 3 -56 15 -56 9 0 15 9 16 23 l0 22 11 -22 c6 -13
16 -23 23 -23 7 0 17 10 23 23 l11 22 0 -22 c1 -14 7 -23 16 -23 12 0 15 13
15 56 0 51 -2 55 -22 52 -14 -2 -25 -14 -33 -37 l-11 -34 -10 34 c-7 24 -16
35 -32 37 -20 3 -22 -1 -22 -52z"/>
<path d="M1364 343 c-11 -27 -20 -51 -22 -55 -2 -5 4 -8 12 -8 9 0 19 7 22 15
4 8 14 15 24 15 10 0 20 -7 24 -15 3 -8 13 -15 22 -15 8 0 14 3 12 8 -1 4 -11
28 -22 55 -12 31 -25 47 -36 47 -11 0 -24 -16 -36 -47z"/>
<path d="M1500 335 c0 -42 3 -55 15 -55 9 0 15 9 15 22 l0 21 23 -21 c30 -28
58 -30 33 -3 -15 16 -15 22 -5 39 18 29 -4 52 -47 52 l-34 0 0 -55z m58 23
c-6 -18 -28 -21 -28 -4 0 9 7 16 16 16 9 0 14 -5 12 -12z"/>
<path d="M1667 372 c-36 -39 -10 -92 44 -92 38 0 37 16 -1 24 -46 9 -36 66 12
66 10 0 18 5 18 10 0 17 -56 11 -73 -8z"/>
<path d="M1804 343 c-11 -27 -20 -51 -22 -55 -2 -5 4 -8 12 -8 9 0 19 7 22 15
4 8 14 15 24 15 10 0 20 -7 24 -15 3 -8 13 -15 22 -15 8 0 14 3 12 8 -1 4 -11
28 -22 55 -12 31 -25 47 -36 47 -11 0 -24 -16 -36 -47z"/>
<path d="M1952 381 c-21 -13 -10 -44 17 -51 37 -9 38 -30 2 -30 -17 0 -31 -4
-31 -10 0 -5 15 -10 33 -10 59 0 78 44 27 61 -36 13 -39 29 -5 29 14 0 25 5
25 10 0 12 -50 13 -68 1z"/>
<path d="M2080 340 c0 -48 1 -50 28 -50 17 0 38 10 52 25 l23 25 -23 25 c-14
15 -35 25 -52 25 -27 0 -28 -2 -28 -50z"/>
</g>
</svg>
