<?xml version="1.0" standalone="no"?>
<!DOCTYPE svg PUBLIC "-//W3C//DTD SVG 20010904//EN"
 "http://www.w3.org/TR/2001/REC-SVG-20010904/DTD/svg10.dtd">
<svg version="1.0" xmlns="http://www.w3.org/2000/svg"
 width="450.000000pt" height="230.000000pt" viewBox="0 0 450.000000 230.000000"
 preserveAspectRatio="xMidYMid meet">

<g transform="translate(0.000000,230.000000) scale(0.100000,-0.100000)"
fill="#000000" stroke="none">
<path d="M1426 1849 c-156 -16 -362 -92 -524 -190 -126 -78 -396 -347 -440
-439 -17 -36 -34 -78 -37 -95 -5 -28 -4 -27 16 10 52 95 124 160 220 196 119
46 482 86 944 106 148 6 169 9 115 14 -181 19 -638 6 -907 -24 -130 -15 -130
-15 -36 74 109 104 230 174 393 228 134 44 244 61 395 61 115 0 136 -3 180
-24 61 -28 132 -99 237 -233 l79 -103 202 0 c387 0 1105 -28 1285 -49 35 -4
65 -4 68 0 12 21 -175 45 -641 84 -138 12 -472 25 -631 25 -252 0 -249 -1
-309 78 -27 36 -85 103 -129 149 l-78 83 63 0 c105 0 376 -19 499 -35 169 -22
353 -89 524 -194 87 -52 69 -29 -30 39 -123 85 -286 156 -428 186 -261 55
-766 81 -1030 53z"/>
<path d="M1675 1383 c-286 -7 -730 -47 -883 -79 l-24 -5 25 -19 c23 -19 26
-19 173 0 377 47 844 80 1186 81 297 1 331 14 59 22 -230 7 -287 7 -536 0z"/>
<path d="M3650 1372 c0 -4 19 -15 42 -25 91 -40 234 -216 281 -347 21 -61 46
-150 51 -180 8 -62 -38 -115 -127 -145 -90 -30 -131 -35 -652 -65 -71 -4 -215
-14 -319 -20 -150 -11 -193 -11 -209 -1 -26 17 -44 -1 -21 -20 23 -19 237 -24
419 -10 l141 12 67 -31 c113 -51 215 -38 263 35 13 20 24 25 58 25 22 0 68 6
101 14 33 8 82 17 110 21 27 4 77 19 111 35 113 51 120 121 36 330 -65 163
-116 232 -237 321 -71 53 -115 73 -115 51z m-106 -799 c-36 -33 -120 -43 -174
-20 l-35 14 35 6 c19 3 69 10 110 15 41 5 79 10 84 11 5 0 -4 -11 -20 -26z"/>
<path d="M2740 1329 c-27 -50 81 -156 205 -200 64 -23 269 -39 375 -29 44 4
30 7 -73 13 -145 9 -260 35 -325 73 -52 31 -122 92 -122 107 0 20 324 -12 444
-44 56 -15 108 -43 153 -82 l37 -32 -21 31 c-34 47 -101 104 -147 124 -48 21
-136 36 -291 50 -175 16 -222 14 -235 -11z"/>
<path d="M3473 1310 c-49 -20 -39 -103 21 -182 40 -53 107 -100 180 -127 62
-22 146 -36 146 -23 0 5 -21 12 -47 16 -57 7 -136 42 -180 80 -39 33 -83 119
-83 163 l0 32 108 3 107 3 -22 23 c-21 20 -32 22 -115 21 -51 0 -103 -4 -115
-9z"/>
<path d="M2258 1275 c-96 -39 -148 -163 -148 -353 0 -197 68 -360 171 -412 51
-27 178 -28 229 -2 47 23 92 101 115 197 35 151 -2 377 -78 477 -54 70 -100
95 -187 100 -43 3 -86 0 -102 -7z m196 -78 c45 -28 87 -87 117 -165 27 -73 30
-270 5 -356 -29 -98 -107 -144 -216 -127 -88 14 -120 42 -175 151 -26 50 -29
67 -33 190 -4 120 -2 141 17 192 40 104 85 137 186 138 45 0 69 -6 99 -23z"/>
<path d="M1607 1238 c-12 -13 -47 -67 -76 -120 -30 -54 -57 -98 -60 -98 -3 0
-17 16 -31 34 -127 171 -132 176 -167 176 l-33 0 6 -82 c3 -46 10 -107 15
-137 5 -30 9 -75 9 -100 0 -25 5 -82 12 -128 10 -69 15 -83 30 -83 23 0 23 19
0 243 -10 92 -14 167 -10 167 3 0 17 -15 30 -32 12 -18 52 -61 88 -96 l64 -64
28 34 c15 18 28 36 28 41 0 4 19 37 43 73 l42 65 7 -48 c4 -26 14 -120 23
-208 10 -88 21 -164 27 -170 11 -12 39 20 33 38 -2 7 -13 109 -25 227 -11 118
-23 232 -26 253 -7 43 -24 48 -57 15z"/>
<path d="M2025 1253 c-11 -3 -23 -8 -26 -11 -4 -4 -3 -56 1 -117 10 -147 12
-145 -117 -145 -75 0 -103 3 -104 13 -12 202 -16 247 -23 254 -4 4 -16 -3 -27
-17 -17 -23 -19 -36 -13 -160 6 -108 10 -137 23 -145 9 -5 75 -12 146 -15
l130 -5 5 -126 c5 -128 14 -159 48 -159 13 0 14 28 8 228 -8 270 -16 412 -25
411 -3 -1 -15 -3 -26 -6z"/>
<path d="M998 1221 c-92 -6 -97 -7 -120 -36 -20 -25 -23 -41 -22 -105 0 -86
20 -135 60 -150 14 -6 74 -10 133 -10 92 0 110 -3 124 -18 22 -24 38 -109 26
-139 -15 -41 -83 -63 -206 -66 -59 -2 -108 -8 -107 -13 0 -5 18 -18 39 -28 36
-18 47 -19 138 -9 78 9 107 17 138 37 39 26 39 27 39 89 0 75 -21 153 -52 192
l-22 28 -112 -7 c-135 -7 -150 0 -160 79 -9 72 11 93 96 105 99 14 171 12 190
-5 15 -14 19 -14 29 -1 10 12 9 20 -6 40 -20 28 -15 27 -205 17z"/>
<path d="M606 1178 c-29 -17 -64 -59 -82 -98 -9 -19 -21 -44 -27 -55 -6 -11
-13 -74 -15 -141 -4 -135 6 -180 61 -272 35 -59 99 -98 139 -87 75 21 94 36
126 100 17 35 28 67 23 69 -5 3 -14 -7 -21 -23 -18 -44 -77 -81 -129 -81 -62
0 -93 21 -125 84 -27 53 -28 63 -27 174 2 143 17 196 67 236 41 32 103 44 146
27 15 -6 40 -30 55 -53 23 -36 28 -40 31 -22 6 40 -33 116 -69 136 -38 20
-123 24 -153 6z"/>
<path d="M383 963 c3 -38 15 -86 25 -108 11 -22 22 -47 25 -55 12 -32 6 27 -9
90 -9 36 -18 82 -21 103 -3 20 -10 37 -16 37 -6 0 -8 -24 -4 -67z"/>
<path d="M1183 633 c-75 -17 -86 -38 -15 -29 165 23 580 13 792 -17 52 -8 97
-12 99 -10 3 2 -1 9 -7 15 -45 45 -719 77 -869 41z"/>
<path d="M590 351 c0 -104 1 -111 20 -111 18 0 20 7 20 78 l1 77 25 -77 c15
-49 30 -78 39 -78 9 0 24 29 39 78 l25 77 1 -77 c0 -71 2 -78 20 -78 19 0 20
7 20 111 l0 110 -27 -3 c-24 -3 -30 -11 -50 -77 -12 -40 -24 -75 -27 -78 -2
-3 -15 31 -28 74 -21 70 -26 78 -51 81 l-27 3 0 -110z"/>
<path d="M972 369 c4 -81 7 -94 27 -110 30 -25 92 -25 122 0 20 16 23 29 27
110 4 87 4 91 -17 91 -20 0 -21 -5 -21 -90 0 -87 -1 -91 -25 -102 -19 -8 -31
-8 -50 0 -24 11 -25 15 -25 102 0 85 -1 90 -21 90 -21 0 -21 -4 -17 -91z"/>
<path d="M1320 350 l0 -110 75 0 c43 0 75 4 75 10 0 6 -25 10 -55 10 l-55 0 0
100 c0 93 -1 100 -20 100 -19 0 -20 -7 -20 -110z"/>
<path d="M1600 450 c0 -5 16 -10 35 -10 l35 0 0 -100 c0 -93 1 -100 20 -100
19 0 20 7 20 100 l0 100 35 0 c19 0 35 5 35 10 0 6 -37 10 -90 10 -53 0 -90
-4 -90 -10z"/>
<path d="M1930 350 c0 -103 1 -110 20 -110 19 0 20 7 20 110 0 103 -1 110 -20
110 -19 0 -20 -7 -20 -110z"/>
<path d="M2140 351 c0 -104 1 -111 20 -111 18 0 20 7 20 78 l1 77 25 -77 c15
-49 30 -78 39 -78 9 0 24 29 39 78 l25 77 1 -77 c0 -71 2 -78 20 -78 19 0 20
7 20 99 0 75 -4 101 -15 111 -26 21 -41 4 -64 -75 -12 -42 -24 -75 -27 -72 -3
3 -15 38 -27 78 -20 66 -26 74 -50 77 l-27 3 0 -110z"/>
<path d="M2544 350 c-37 -97 -40 -110 -24 -110 12 0 22 12 30 35 11 33 14 35
55 35 41 0 44 -2 55 -35 8 -23 18 -35 30 -35 16 0 13 12 -25 108 -59 146 -68
146 -121 2z m79 25 l16 -45 -35 0 c-19 0 -34 2 -34 5 0 8 32 85 35 85 2 0 10
-20 18 -45z"/>
<path d="M2860 350 c0 -103 1 -110 20 -110 17 0 20 7 20 46 l0 45 38 -3 c33
-3 39 -8 57 -45 12 -26 26 -43 37 -43 16 0 16 3 2 38 -9 20 -20 41 -24 46 -5
5 0 21 11 36 23 31 18 75 -11 90 -10 6 -48 10 -84 10 l-66 0 0 -110z m128 78
c17 -17 15 -65 -4 -72 -9 -3 -31 -6 -50 -6 -34 0 -34 0 -34 45 l0 45 38 0 c21
0 43 -5 50 -12z"/>
<path d="M3248 444 c-59 -32 -58 -158 2 -189 55 -29 121 -12 133 35 4 15 0 20
-14 20 -10 0 -19 -7 -19 -15 0 -8 -9 -19 -19 -25 -52 -27 -91 7 -91 80 0 73
39 107 91 80 10 -6 19 -17 19 -25 0 -8 9 -15 20 -15 14 0 18 5 13 18 -17 47
-82 65 -135 36z"/>
<path d="M3574 350 c-37 -97 -40 -110 -24 -110 12 0 22 12 30 35 11 33 14 35
55 35 41 0 44 -2 55 -35 8 -23 18 -35 30 -35 16 0 13 12 -25 108 -59 146 -68
146 -121 2z m79 25 l16 -45 -35 0 c-19 0 -34 2 -34 5 0 8 32 85 35 85 2 0 10
-20 18 -45z"/>
<path d="M3910 440 c-41 -41 -21 -74 59 -100 38 -12 46 -19 46 -39 0 -13 -7
-28 -16 -34 -23 -14 -70 0 -76 23 -5 20 -43 28 -43 10 0 -6 11 -22 25 -35 34
-35 96 -35 130 0 44 43 27 77 -50 101 -46 15 -55 22 -55 41 0 34 47 44 71 14
10 -13 26 -21 36 -19 16 3 15 7 -9 31 -34 34 -88 37 -118 7z"/>
</g>
</svg>
