<?xml version="1.0" standalone="no"?>
<!DOCTYPE svg PUBLIC "-//W3C//DTD SVG 20010904//EN"
 "http://www.w3.org/TR/2001/REC-SVG-20010904/DTD/svg10.dtd">
<svg version="1.0" xmlns="http://www.w3.org/2000/svg"
 width="250.000000pt" height="130.000000pt" viewBox="0 0 250.000000 130.000000"
 preserveAspectRatio="xMidYMid meet">

<g transform="translate(0.000000,130.000000) scale(0.100000,-0.100000)"
fill="#000000" stroke="none">
<path d="M653 1230 c-59 -11 -156 -46 -229 -83 -139 -70 -331 -267 -359 -367
-4 -16 5 -7 24 23 41 63 105 103 189 116 166 27 290 41 421 47 77 4 138 11
135 16 -10 16 -311 6 -534 -18 l-65 -7 40 43 c74 78 175 136 305 174 63 19
239 32 294 22 46 -9 104 -60 177 -156 l53 -70 90 0 c160 0 477 -11 629 -20
296 -19 323 -20 294 -11 -15 5 -56 12 -90 16 -34 3 -69 8 -77 10 -15 4 -193
21 -310 29 -36 3 -167 8 -292 12 l-226 6 -30 42 c-16 22 -53 66 -81 96 -42 45
-48 56 -33 58 10 2 101 -4 203 -12 204 -17 267 -32 394 -96 48 -24 70 -32 55
-19 -70 59 -192 109 -332 135 -99 18 -565 28 -645 14z"/>
<path d="M745 929 c-143 -6 -264 -17 -407 -35 -48 -7 -62 -19 -32 -31 8 -3 47
0 87 6 110 17 391 39 597 47 104 4 176 11 165 15 -24 9 -188 8 -410 -2z"/>
<path d="M1203 923 c15 -2 37 -2 50 0 12 2 0 4 -28 4 -27 0 -38 -2 -22 -4z"/>
<path d="M2158 923 c6 -2 18 -2 25 0 6 3 1 5 -13 5 -14 0 -19 -2 -12 -5z"/>
<path d="M1540 892 c0 -11 12 -34 26 -52 52 -61 144 -90 279 -89 l90 2 -90 8
c-49 5 -110 16 -134 24 -43 14 -130 73 -131 88 -1 24 266 -9 331 -41 45 -22
42 -6 -6 26 -47 33 -90 41 -237 49 -125 6 -128 6 -128 -15z"/>
<path d="M2013 890 c-14 -6 -23 -18 -23 -32 0 -39 40 -105 78 -130 38 -26 102
-51 109 -44 3 2 -11 9 -29 15 -43 14 -86 55 -104 97 -27 65 -30 64 142 64 88
0 164 -4 175 -10 10 -6 19 -7 19 -2 0 36 -298 70 -367 42z"/>
<path d="M1294 830 c-54 -12 -99 -47 -127 -99 -31 -56 -37 -92 -7 -44 41 67
130 103 224 89 34 -5 57 -18 96 -53 51 -46 57 -36 13 24 -45 61 -134 98 -199
83z"/>
<path d="M201 817 c-33 -16 -71 -91 -70 -136 l1 -36 12 45 c22 77 32 90 75 90
43 0 62 -16 87 -75 23 -55 30 -27 9 36 -12 36 -26 56 -49 70 -37 22 -34 22
-65 6z"/>
<path d="M1583 609 c-8 -8 -13 -39 -13 -76 l0 -63 125 0 125 0 0 -50 c0 -51 8
-61 29 -36 8 9 11 50 9 117 -2 85 -6 104 -18 104 -11 0 -16 -13 -18 -48 l-3
-48 -107 3 -107 3 -5 53 c-4 43 -7 51 -17 41z"/>
<path d="M414 596 c-45 -20 -64 -52 -64 -109 0 -40 5 -53 29 -78 29 -29 31
-29 146 -29 89 0 116 3 113 13 -3 8 -38 14 -104 18 -116 7 -128 11 -144 50
-16 37 3 87 37 100 13 5 62 9 107 9 58 0 87 4 95 13 6 8 8 17 4 20 -12 13
-187 7 -219 -7z"/>
<path d="M793 600 c-45 -18 -56 -74 -20 -108 19 -18 36 -22 122 -24 88 -3 100
-5 103 -22 6 -29 -16 -36 -124 -36 -78 0 -104 -3 -114 -15 -11 -13 3 -15 117
-15 143 0 163 8 163 63 0 53 -29 67 -140 67 -81 0 -102 3 -106 15 -14 34 14
45 120 45 68 1 107 5 118 14 10 7 15 16 11 19 -10 10 -225 7 -250 -3z"/>
<path d="M1167 603 c-4 -3 -7 -52 -7 -108 0 -79 3 -105 15 -115 20 -17 24 -4
27 94 l3 78 49 -43 c34 -30 52 -40 61 -33 7 5 32 24 54 42 l41 34 0 -91 c0
-49 4 -92 9 -96 20 -12 31 37 31 139 0 127 -7 131 -87 61 -28 -25 -54 -45 -58
-45 -4 0 -30 20 -57 45 -48 43 -67 52 -81 38z"/>
<path d="M1964 596 c-46 -21 -74 -62 -74 -108 0 -32 7 -47 34 -74 33 -33 36
-34 112 -34 47 1 85 6 94 13 65 51 66 151 2 193 -34 22 -129 28 -168 10z m150
-47 c20 -16 26 -29 26 -58 0 -57 -27 -76 -107 -76 -56 0 -67 3 -84 24 -26 32
-24 77 6 106 33 33 119 36 159 4z"/>
<path d="M557 303 c-9 -8 -9 -66 -1 -87 9 -23 24 -9 25 22 l1 27 10 -27 c5
-16 13 -28 17 -28 4 0 12 12 18 28 l11 27 1 -27 c2 -50 21 -29 21 22 0 57 -23
70 -41 23 l-11 -28 -10 28 c-9 26 -27 35 -41 20z"/>
<path d="M720 272 c0 -50 28 -79 59 -62 17 8 21 20 21 55 0 25 -4 45 -10 45
-5 0 -10 -17 -10 -38 0 -21 -3 -42 -7 -45 -13 -13 -33 16 -33 49 0 19 -4 34
-10 34 -5 0 -10 -17 -10 -38z"/>
<path d="M862 258 c3 -55 18 -69 56 -52 14 6 13 8 -8 13 -21 6 -25 14 -28 49
-2 23 -8 42 -13 42 -6 0 -9 -22 -7 -52z"/>
<path d="M970 300 c0 -5 7 -10 15 -10 11 0 15 -11 15 -39 0 -22 5 -43 10 -46
6 -4 10 12 10 39 0 34 4 46 15 46 8 0 15 5 15 10 0 6 -18 10 -40 10 -22 0 -40
-4 -40 -10z"/>
<path d="M1100 260 c0 -27 5 -50 10 -50 6 0 10 23 10 50 0 28 -4 50 -10 50 -5
0 -10 -22 -10 -50z"/>
<path d="M1190 260 c0 -51 15 -69 23 -27 l4 22 8 -22 c10 -32 23 -28 34 10 l9
32 1 -37 c2 -61 21 -44 21 18 0 47 -3 55 -17 52 -9 -2 -20 -14 -24 -28 l-6
-25 -11 28 c-19 47 -42 34 -42 -23z"/>
<path d="M1370 285 c-5 -14 -13 -37 -16 -50 -6 -23 -4 -24 30 -18 26 4 36 2
36 -7 0 -7 3 -11 6 -7 3 3 0 29 -7 56 -14 56 -34 66 -49 26z m30 -25 c0 -5 -5
-10 -11 -10 -5 0 -7 5 -4 10 3 6 8 10 11 10 2 0 4 -4 4 -10z"/>
<path d="M1494 296 c-9 -22 0 -91 11 -89 6 1 12 12 15 24 6 22 6 22 29 -7 l22
-29 -5 31 c-3 17 0 36 6 42 17 17 -9 42 -44 42 -16 0 -31 -6 -34 -14z m66 -15
c0 -5 -7 -12 -16 -15 -22 -9 -24 -8 -24 9 0 8 9 15 20 15 11 0 20 -4 20 -9z"/>
<path d="M1640 291 c-16 -31 -12 -59 12 -75 15 -11 26 -12 40 -5 27 14 22 28
-9 26 -22 -2 -29 3 -31 21 -4 24 29 45 36 24 5 -17 22 -15 22 2 0 29 -55 35
-70 7z"/>
<path d="M1790 308 c0 -2 -6 -23 -14 -48 l-14 -45 44 0 c24 0 44 0 44 1 0 20
-36 94 -46 94 -8 0 -14 -1 -14 -2z m25 -47 c3 -5 1 -12 -5 -16 -5 -3 -10 1
-10 9 0 18 6 21 15 7z"/>
<path d="M1917 303 c-16 -15 -6 -41 19 -47 33 -9 25 -32 -10 -28 -31 3 -33 -3
-6 -18 14 -8 26 -8 40 0 29 15 26 48 -5 56 -33 8 -32 24 3 24 21 0 24 2 12 10
-17 11 -44 13 -53 3z"/>
<path d="M902 158 c-15 -15 -15 -61 0 -76 16 -16 43 -15 58 3 14 17 0 21 -17
4 -17 -17 -33 -2 -33 31 0 33 16 48 33 31 17 -17 31 -13 17 4 -15 18 -42 19
-58 3z"/>
<path d="M1022 158 c-15 -15 -15 -61 0 -76 15 -15 51 -15 66 0 15 15 15 61 0
76 -7 7 -21 12 -33 12 -12 0 -26 -5 -33 -12z m53 -38 c0 -28 -4 -35 -20 -35
-13 0 -21 8 -23 23 -5 34 5 54 25 50 13 -2 18 -13 18 -38z"/>
<path d="M1140 120 c0 -27 5 -50 10 -50 6 0 10 15 10 33 l0 32 20 -32 c28 -46
40 -41 40 17 0 28 -4 50 -10 50 -5 0 -10 -15 -10 -32 l0 -33 -20 33 c-28 45
-40 40 -40 -18z"/>
<path d="M1263 163 c13 -3 17 -15 17 -49 0 -24 5 -44 10 -44 6 0 10 20 10 44
0 34 4 46 18 49 9 3 -3 5 -28 5 -25 0 -37 -2 -27 -5z"/>
<path d="M1370 123 c-19 -44 -19 -76 1 -40 13 22 45 22 58 0 5 -10 12 -15 15
-12 8 8 -33 99 -44 99 -5 0 -18 -21 -30 -47z m40 -3 c0 -5 -4 -10 -10 -10 -5
0 -10 5 -10 10 0 6 5 10 10 10 6 0 10 -4 10 -10z"/>
<path d="M1483 163 c13 -3 17 -15 17 -49 0 -24 5 -44 10 -44 6 0 10 20 10 44
0 34 4 46 18 49 9 3 -3 5 -28 5 -25 0 -37 -2 -27 -5z"/>
<path d="M1592 158 c-7 -7 -12 -24 -12 -38 0 -31 17 -50 45 -50 28 0 45 19 45
50 0 31 -17 50 -45 50 -12 0 -26 -5 -33 -12z m53 -38 c0 -28 -4 -35 -20 -35
-13 0 -21 8 -23 23 -5 34 5 54 25 50 13 -2 18 -13 18 -38z"/>
</g>
</svg>
